<mxfile host="app.diagrams.net" modified="2022-01-08T07:29:01.039Z" agent="5.0 (X11; Linux x86_64) AppleWebKit/537.36 (KHTML, like Gecko) Chrome/96.0.4664.93 Safari/537.36" etag="QW03GPjMhi_qLM8cUOte" version="16.2.4" type="github">
  <diagram id="CSmssLxdvwbl9PNHUO09" name="Page-1">
    <mxGraphModel dx="2249" dy="1874" grid="1" gridSize="10" guides="1" tooltips="1" connect="1" arrows="1" fold="1" page="1" pageScale="1" pageWidth="827" pageHeight="1169" math="0" shadow="0">
      <root>
        <mxCell id="0" />
        <mxCell id="1" parent="0" />
        <mxCell id="ElFFhCFkvkXkjmspQPzn-230" style="edgeStyle=orthogonalEdgeStyle;rounded=0;orthogonalLoop=1;jettySize=auto;html=1;exitX=1;exitY=0.5;exitDx=0;exitDy=0;entryX=0;entryY=0.25;entryDx=0;entryDy=0;fontSize=14;" parent="1" source="ElFFhCFkvkXkjmspQPzn-1" target="ElFFhCFkvkXkjmspQPzn-2" edge="1">
          <mxGeometry relative="1" as="geometry" />
        </mxCell>
        <mxCell id="ElFFhCFkvkXkjmspQPzn-231" style="edgeStyle=orthogonalEdgeStyle;rounded=0;orthogonalLoop=1;jettySize=auto;html=1;exitX=1;exitY=0.5;exitDx=0;exitDy=0;entryX=0;entryY=0.5;entryDx=0;entryDy=0;fontSize=14;" parent="1" source="ElFFhCFkvkXkjmspQPzn-1" target="ElFFhCFkvkXkjmspQPzn-197" edge="1">
          <mxGeometry relative="1" as="geometry">
            <Array as="points">
              <mxPoint x="-510" y="5400" />
              <mxPoint x="-510" y="6160" />
            </Array>
          </mxGeometry>
        </mxCell>
        <mxCell id="ElFFhCFkvkXkjmspQPzn-1" value="&lt;font style=&quot;font-size: 14px&quot;&gt;oj&lt;/font&gt;" style="rounded=0;whiteSpace=wrap;html=1;" parent="1" vertex="1">
          <mxGeometry x="-800" y="5370" width="120" height="60" as="geometry" />
        </mxCell>
        <mxCell id="ElFFhCFkvkXkjmspQPzn-19" style="edgeStyle=orthogonalEdgeStyle;rounded=0;orthogonalLoop=1;jettySize=auto;html=1;exitX=1;exitY=0.5;exitDx=0;exitDy=0;entryX=0;entryY=0.5;entryDx=0;entryDy=0;fontSize=14;" parent="1" source="ElFFhCFkvkXkjmspQPzn-2" target="ElFFhCFkvkXkjmspQPzn-10" edge="1">
          <mxGeometry relative="1" as="geometry">
            <Array as="points">
              <mxPoint x="140" y="1300" />
              <mxPoint x="140" y="180" />
            </Array>
          </mxGeometry>
        </mxCell>
        <mxCell id="ElFFhCFkvkXkjmspQPzn-56" style="edgeStyle=orthogonalEdgeStyle;rounded=0;orthogonalLoop=1;jettySize=auto;html=1;exitX=1;exitY=0.5;exitDx=0;exitDy=0;fontSize=14;entryX=0;entryY=0.5;entryDx=0;entryDy=0;" parent="1" source="ElFFhCFkvkXkjmspQPzn-2" target="ElFFhCFkvkXkjmspQPzn-9" edge="1">
          <mxGeometry relative="1" as="geometry">
            <mxPoint x="140" y="20" as="targetPoint" />
            <Array as="points">
              <mxPoint x="140" y="1300" />
              <mxPoint x="140" y="-230" />
            </Array>
          </mxGeometry>
        </mxCell>
        <mxCell id="ElFFhCFkvkXkjmspQPzn-189" style="edgeStyle=orthogonalEdgeStyle;rounded=0;orthogonalLoop=1;jettySize=auto;html=1;exitX=1;exitY=0.5;exitDx=0;exitDy=0;entryX=0;entryY=0.5;entryDx=0;entryDy=0;fontSize=14;" parent="1" source="ElFFhCFkvkXkjmspQPzn-2" target="ElFFhCFkvkXkjmspQPzn-32" edge="1">
          <mxGeometry relative="1" as="geometry">
            <Array as="points">
              <mxPoint x="140" y="1300" />
              <mxPoint x="140" y="760" />
            </Array>
          </mxGeometry>
        </mxCell>
        <mxCell id="ElFFhCFkvkXkjmspQPzn-190" style="edgeStyle=orthogonalEdgeStyle;rounded=0;orthogonalLoop=1;jettySize=auto;html=1;exitX=1;exitY=0.5;exitDx=0;exitDy=0;entryX=0;entryY=0.25;entryDx=0;entryDy=0;fontSize=14;" parent="1" source="ElFFhCFkvkXkjmspQPzn-2" target="ElFFhCFkvkXkjmspQPzn-45" edge="1">
          <mxGeometry relative="1" as="geometry">
            <Array as="points">
              <mxPoint x="140" y="1300" />
              <mxPoint x="140" y="1275" />
            </Array>
          </mxGeometry>
        </mxCell>
        <mxCell id="ElFFhCFkvkXkjmspQPzn-191" style="edgeStyle=orthogonalEdgeStyle;rounded=0;orthogonalLoop=1;jettySize=auto;html=1;exitX=1;exitY=0.5;exitDx=0;exitDy=0;entryX=0;entryY=0.5;entryDx=0;entryDy=0;fontSize=14;" parent="1" source="ElFFhCFkvkXkjmspQPzn-2" target="ElFFhCFkvkXkjmspQPzn-93" edge="1">
          <mxGeometry relative="1" as="geometry">
            <Array as="points">
              <mxPoint x="140" y="1300" />
              <mxPoint x="140" y="2320" />
            </Array>
          </mxGeometry>
        </mxCell>
        <mxCell id="ElFFhCFkvkXkjmspQPzn-192" style="edgeStyle=orthogonalEdgeStyle;rounded=0;orthogonalLoop=1;jettySize=auto;html=1;exitX=1;exitY=0.5;exitDx=0;exitDy=0;entryX=0;entryY=0.5;entryDx=0;entryDy=0;fontSize=14;" parent="1" source="ElFFhCFkvkXkjmspQPzn-2" target="ElFFhCFkvkXkjmspQPzn-143" edge="1">
          <mxGeometry relative="1" as="geometry">
            <Array as="points">
              <mxPoint x="140" y="1300" />
              <mxPoint x="140" y="3420" />
            </Array>
          </mxGeometry>
        </mxCell>
        <mxCell id="ElFFhCFkvkXkjmspQPzn-193" style="edgeStyle=orthogonalEdgeStyle;rounded=0;orthogonalLoop=1;jettySize=auto;html=1;exitX=1;exitY=0.5;exitDx=0;exitDy=0;entryX=0;entryY=0.5;entryDx=0;entryDy=0;fontSize=14;" parent="1" source="ElFFhCFkvkXkjmspQPzn-2" target="ElFFhCFkvkXkjmspQPzn-152" edge="1">
          <mxGeometry relative="1" as="geometry">
            <Array as="points">
              <mxPoint x="140" y="1300" />
              <mxPoint x="140" y="4820" />
            </Array>
          </mxGeometry>
        </mxCell>
        <mxCell id="ElFFhCFkvkXkjmspQPzn-2" value="&lt;font style=&quot;font-size: 14px&quot;&gt;用户端&lt;/font&gt;" style="rounded=0;whiteSpace=wrap;html=1;" parent="1" vertex="1">
          <mxGeometry x="-340" y="1270" width="120" height="60" as="geometry" />
        </mxCell>
        <mxCell id="ElFFhCFkvkXkjmspQPzn-16" style="edgeStyle=orthogonalEdgeStyle;rounded=0;orthogonalLoop=1;jettySize=auto;html=1;entryX=0;entryY=0.5;entryDx=0;entryDy=0;fontSize=14;exitX=1;exitY=0.5;exitDx=0;exitDy=0;" parent="1" source="ElFFhCFkvkXkjmspQPzn-9" target="ElFFhCFkvkXkjmspQPzn-14" edge="1">
          <mxGeometry relative="1" as="geometry" />
        </mxCell>
        <mxCell id="ElFFhCFkvkXkjmspQPzn-17" style="edgeStyle=orthogonalEdgeStyle;rounded=0;orthogonalLoop=1;jettySize=auto;html=1;exitX=1;exitY=0.5;exitDx=0;exitDy=0;entryX=0;entryY=0.5;entryDx=0;entryDy=0;fontSize=14;" parent="1" source="ElFFhCFkvkXkjmspQPzn-9" target="ElFFhCFkvkXkjmspQPzn-15" edge="1">
          <mxGeometry relative="1" as="geometry" />
        </mxCell>
        <mxCell id="ElFFhCFkvkXkjmspQPzn-9" value="&lt;font style=&quot;font-size: 14px&quot;&gt;登陆&lt;/font&gt;" style="rounded=0;whiteSpace=wrap;html=1;" parent="1" vertex="1">
          <mxGeometry x="220" y="-260" width="120" height="60" as="geometry" />
        </mxCell>
        <mxCell id="ElFFhCFkvkXkjmspQPzn-23" style="edgeStyle=orthogonalEdgeStyle;rounded=0;orthogonalLoop=1;jettySize=auto;html=1;exitX=1;exitY=0.5;exitDx=0;exitDy=0;entryX=0;entryY=0.5;entryDx=0;entryDy=0;fontSize=14;" parent="1" source="ElFFhCFkvkXkjmspQPzn-10" target="ElFFhCFkvkXkjmspQPzn-11" edge="1">
          <mxGeometry relative="1" as="geometry" />
        </mxCell>
        <mxCell id="ElFFhCFkvkXkjmspQPzn-24" style="edgeStyle=orthogonalEdgeStyle;rounded=0;orthogonalLoop=1;jettySize=auto;html=1;exitX=1;exitY=0.5;exitDx=0;exitDy=0;entryX=0;entryY=0.5;entryDx=0;entryDy=0;fontSize=14;" parent="1" source="ElFFhCFkvkXkjmspQPzn-10" target="ElFFhCFkvkXkjmspQPzn-20" edge="1">
          <mxGeometry relative="1" as="geometry" />
        </mxCell>
        <mxCell id="ElFFhCFkvkXkjmspQPzn-26" style="edgeStyle=orthogonalEdgeStyle;rounded=0;orthogonalLoop=1;jettySize=auto;html=1;exitX=1;exitY=0.5;exitDx=0;exitDy=0;entryX=0;entryY=0.5;entryDx=0;entryDy=0;fontSize=14;" parent="1" source="ElFFhCFkvkXkjmspQPzn-10" target="ElFFhCFkvkXkjmspQPzn-12" edge="1">
          <mxGeometry relative="1" as="geometry" />
        </mxCell>
        <mxCell id="ElFFhCFkvkXkjmspQPzn-27" style="edgeStyle=orthogonalEdgeStyle;rounded=0;orthogonalLoop=1;jettySize=auto;html=1;entryX=0;entryY=0.5;entryDx=0;entryDy=0;fontSize=14;" parent="1" source="ElFFhCFkvkXkjmspQPzn-10" target="ElFFhCFkvkXkjmspQPzn-13" edge="1">
          <mxGeometry relative="1" as="geometry" />
        </mxCell>
        <mxCell id="ElFFhCFkvkXkjmspQPzn-30" style="edgeStyle=orthogonalEdgeStyle;rounded=0;orthogonalLoop=1;jettySize=auto;html=1;exitX=1;exitY=0.5;exitDx=0;exitDy=0;entryX=0;entryY=0.5;entryDx=0;entryDy=0;fontSize=14;" parent="1" source="ElFFhCFkvkXkjmspQPzn-10" target="ElFFhCFkvkXkjmspQPzn-28" edge="1">
          <mxGeometry relative="1" as="geometry" />
        </mxCell>
        <mxCell id="ElFFhCFkvkXkjmspQPzn-31" style="edgeStyle=orthogonalEdgeStyle;rounded=0;orthogonalLoop=1;jettySize=auto;html=1;exitX=1;exitY=0.5;exitDx=0;exitDy=0;entryX=0;entryY=0.5;entryDx=0;entryDy=0;fontSize=14;" parent="1" source="ElFFhCFkvkXkjmspQPzn-10" target="ElFFhCFkvkXkjmspQPzn-29" edge="1">
          <mxGeometry relative="1" as="geometry" />
        </mxCell>
        <mxCell id="ElFFhCFkvkXkjmspQPzn-10" value="&lt;font style=&quot;font-size: 14px&quot;&gt;注册&lt;/font&gt;" style="rounded=0;whiteSpace=wrap;html=1;" parent="1" vertex="1">
          <mxGeometry x="220" y="150" width="120" height="60" as="geometry" />
        </mxCell>
        <mxCell id="ElFFhCFkvkXkjmspQPzn-75" style="edgeStyle=orthogonalEdgeStyle;rounded=0;orthogonalLoop=1;jettySize=auto;html=1;exitX=1;exitY=0.5;exitDx=0;exitDy=0;entryX=0;entryY=0.5;entryDx=0;entryDy=0;fontSize=14;" parent="1" source="ElFFhCFkvkXkjmspQPzn-11" target="ElFFhCFkvkXkjmspQPzn-74" edge="1">
          <mxGeometry relative="1" as="geometry" />
        </mxCell>
        <mxCell id="ElFFhCFkvkXkjmspQPzn-11" value="输入学号" style="rounded=0;whiteSpace=wrap;html=1;" parent="1" vertex="1">
          <mxGeometry x="470" y="-100" width="120" height="60" as="geometry" />
        </mxCell>
        <mxCell id="ElFFhCFkvkXkjmspQPzn-78" style="edgeStyle=orthogonalEdgeStyle;rounded=0;orthogonalLoop=1;jettySize=auto;html=1;exitX=1;exitY=0.5;exitDx=0;exitDy=0;fontSize=14;entryX=0;entryY=0.5;entryDx=0;entryDy=0;" parent="1" source="ElFFhCFkvkXkjmspQPzn-12" target="ElFFhCFkvkXkjmspQPzn-74" edge="1">
          <mxGeometry relative="1" as="geometry">
            <mxPoint x="730" y="180" as="targetPoint" />
          </mxGeometry>
        </mxCell>
        <mxCell id="ElFFhCFkvkXkjmspQPzn-12" value="输入专业" style="rounded=0;whiteSpace=wrap;html=1;" parent="1" vertex="1">
          <mxGeometry x="470" y="150" width="120" height="60" as="geometry" />
        </mxCell>
        <mxCell id="ElFFhCFkvkXkjmspQPzn-79" style="edgeStyle=orthogonalEdgeStyle;rounded=0;orthogonalLoop=1;jettySize=auto;html=1;entryX=0;entryY=0.5;entryDx=0;entryDy=0;fontSize=14;" parent="1" source="ElFFhCFkvkXkjmspQPzn-13" target="ElFFhCFkvkXkjmspQPzn-74" edge="1">
          <mxGeometry relative="1" as="geometry" />
        </mxCell>
        <mxCell id="ElFFhCFkvkXkjmspQPzn-13" value="输入班级" style="rounded=0;whiteSpace=wrap;html=1;" parent="1" vertex="1">
          <mxGeometry x="470" y="240" width="120" height="60" as="geometry" />
        </mxCell>
        <mxCell id="ElFFhCFkvkXkjmspQPzn-71" style="edgeStyle=orthogonalEdgeStyle;rounded=0;orthogonalLoop=1;jettySize=auto;html=1;exitX=1;exitY=0.5;exitDx=0;exitDy=0;entryX=0;entryY=0.5;entryDx=0;entryDy=0;fontSize=14;" parent="1" source="ElFFhCFkvkXkjmspQPzn-14" target="ElFFhCFkvkXkjmspQPzn-70" edge="1">
          <mxGeometry relative="1" as="geometry" />
        </mxCell>
        <mxCell id="ElFFhCFkvkXkjmspQPzn-14" value="&lt;font style=&quot;font-size: 14px&quot;&gt;输入学号&lt;/font&gt;" style="rounded=0;whiteSpace=wrap;html=1;" parent="1" vertex="1">
          <mxGeometry x="470" y="-310" width="120" height="60" as="geometry" />
        </mxCell>
        <mxCell id="ElFFhCFkvkXkjmspQPzn-72" style="edgeStyle=orthogonalEdgeStyle;rounded=0;orthogonalLoop=1;jettySize=auto;html=1;exitX=1;exitY=0.5;exitDx=0;exitDy=0;entryX=0;entryY=0.5;entryDx=0;entryDy=0;fontSize=14;" parent="1" source="ElFFhCFkvkXkjmspQPzn-15" target="ElFFhCFkvkXkjmspQPzn-70" edge="1">
          <mxGeometry relative="1" as="geometry" />
        </mxCell>
        <mxCell id="ElFFhCFkvkXkjmspQPzn-15" value="&lt;font style=&quot;font-size: 14px&quot;&gt;输入密码&lt;/font&gt;" style="rounded=0;whiteSpace=wrap;html=1;" parent="1" vertex="1">
          <mxGeometry x="470" y="-210" width="120" height="60" as="geometry" />
        </mxCell>
        <mxCell id="ElFFhCFkvkXkjmspQPzn-76" style="edgeStyle=orthogonalEdgeStyle;rounded=0;orthogonalLoop=1;jettySize=auto;html=1;exitX=1;exitY=0.5;exitDx=0;exitDy=0;fontSize=14;entryX=0;entryY=0.5;entryDx=0;entryDy=0;" parent="1" source="ElFFhCFkvkXkjmspQPzn-20" target="ElFFhCFkvkXkjmspQPzn-74" edge="1">
          <mxGeometry relative="1" as="geometry">
            <mxPoint x="690" y="70" as="targetPoint" />
          </mxGeometry>
        </mxCell>
        <mxCell id="ElFFhCFkvkXkjmspQPzn-20" value="输入学校" style="rounded=0;whiteSpace=wrap;html=1;fontSize=14;" parent="1" vertex="1">
          <mxGeometry x="470" y="-10" width="120" height="60" as="geometry" />
        </mxCell>
        <mxCell id="ElFFhCFkvkXkjmspQPzn-77" style="edgeStyle=orthogonalEdgeStyle;rounded=0;orthogonalLoop=1;jettySize=auto;html=1;exitX=1;exitY=0.5;exitDx=0;exitDy=0;entryX=0;entryY=0.5;entryDx=0;entryDy=0;fontSize=14;" parent="1" source="ElFFhCFkvkXkjmspQPzn-21" target="ElFFhCFkvkXkjmspQPzn-74" edge="1">
          <mxGeometry relative="1" as="geometry" />
        </mxCell>
        <mxCell id="ElFFhCFkvkXkjmspQPzn-21" value="输入院" style="rounded=0;whiteSpace=wrap;html=1;fontSize=14;" parent="1" vertex="1">
          <mxGeometry x="470" y="70" width="120" height="60" as="geometry" />
        </mxCell>
        <mxCell id="ElFFhCFkvkXkjmspQPzn-80" style="edgeStyle=orthogonalEdgeStyle;rounded=0;orthogonalLoop=1;jettySize=auto;html=1;exitX=1;exitY=0.5;exitDx=0;exitDy=0;entryX=0;entryY=0.5;entryDx=0;entryDy=0;fontSize=14;" parent="1" source="ElFFhCFkvkXkjmspQPzn-28" target="ElFFhCFkvkXkjmspQPzn-74" edge="1">
          <mxGeometry relative="1" as="geometry" />
        </mxCell>
        <mxCell id="ElFFhCFkvkXkjmspQPzn-28" value="输入密码" style="rounded=0;whiteSpace=wrap;html=1;fontSize=14;" parent="1" vertex="1">
          <mxGeometry x="470" y="330" width="120" height="60" as="geometry" />
        </mxCell>
        <mxCell id="ElFFhCFkvkXkjmspQPzn-81" style="edgeStyle=orthogonalEdgeStyle;rounded=0;orthogonalLoop=1;jettySize=auto;html=1;exitX=1;exitY=0.5;exitDx=0;exitDy=0;fontSize=14;entryX=0;entryY=0.5;entryDx=0;entryDy=0;" parent="1" source="ElFFhCFkvkXkjmspQPzn-29" target="ElFFhCFkvkXkjmspQPzn-74" edge="1">
          <mxGeometry relative="1" as="geometry">
            <mxPoint x="710" y="260" as="targetPoint" />
          </mxGeometry>
        </mxCell>
        <mxCell id="ElFFhCFkvkXkjmspQPzn-29" value="确认密码" style="rounded=0;whiteSpace=wrap;html=1;fontSize=14;" parent="1" vertex="1">
          <mxGeometry x="470" y="410" width="120" height="60" as="geometry" />
        </mxCell>
        <mxCell id="ElFFhCFkvkXkjmspQPzn-37" style="edgeStyle=orthogonalEdgeStyle;rounded=0;orthogonalLoop=1;jettySize=auto;html=1;entryX=0;entryY=0.5;entryDx=0;entryDy=0;fontSize=14;" parent="1" source="ElFFhCFkvkXkjmspQPzn-32" target="ElFFhCFkvkXkjmspQPzn-33" edge="1">
          <mxGeometry relative="1" as="geometry" />
        </mxCell>
        <mxCell id="ElFFhCFkvkXkjmspQPzn-38" style="edgeStyle=orthogonalEdgeStyle;rounded=0;orthogonalLoop=1;jettySize=auto;html=1;exitX=1;exitY=0.5;exitDx=0;exitDy=0;entryX=0;entryY=0.5;entryDx=0;entryDy=0;fontSize=14;" parent="1" source="ElFFhCFkvkXkjmspQPzn-32" target="ElFFhCFkvkXkjmspQPzn-34" edge="1">
          <mxGeometry relative="1" as="geometry" />
        </mxCell>
        <mxCell id="ElFFhCFkvkXkjmspQPzn-39" style="edgeStyle=orthogonalEdgeStyle;rounded=0;orthogonalLoop=1;jettySize=auto;html=1;exitX=1;exitY=0.5;exitDx=0;exitDy=0;entryX=0;entryY=0.5;entryDx=0;entryDy=0;fontSize=14;" parent="1" source="ElFFhCFkvkXkjmspQPzn-32" target="ElFFhCFkvkXkjmspQPzn-35" edge="1">
          <mxGeometry relative="1" as="geometry" />
        </mxCell>
        <mxCell id="ElFFhCFkvkXkjmspQPzn-40" style="edgeStyle=orthogonalEdgeStyle;rounded=0;orthogonalLoop=1;jettySize=auto;html=1;exitX=1;exitY=0.5;exitDx=0;exitDy=0;entryX=0;entryY=0.5;entryDx=0;entryDy=0;fontSize=14;" parent="1" source="ElFFhCFkvkXkjmspQPzn-32" target="ElFFhCFkvkXkjmspQPzn-36" edge="1">
          <mxGeometry relative="1" as="geometry" />
        </mxCell>
        <mxCell id="ElFFhCFkvkXkjmspQPzn-32" value="个人信息" style="rounded=0;whiteSpace=wrap;html=1;fontSize=14;" parent="1" vertex="1">
          <mxGeometry x="200" y="730" width="120" height="60" as="geometry" />
        </mxCell>
        <mxCell id="ElFFhCFkvkXkjmspQPzn-33" value="显示个信息" style="rounded=0;whiteSpace=wrap;html=1;fontSize=14;" parent="1" vertex="1">
          <mxGeometry x="460" y="525" width="120" height="60" as="geometry" />
        </mxCell>
        <mxCell id="ElFFhCFkvkXkjmspQPzn-34" value="修改个人信息" style="rounded=0;whiteSpace=wrap;html=1;fontSize=14;" parent="1" vertex="1">
          <mxGeometry x="460" y="660" width="120" height="60" as="geometry" />
        </mxCell>
        <mxCell id="ElFFhCFkvkXkjmspQPzn-35" value="显示每场比赛排名的折线图" style="rounded=0;whiteSpace=wrap;html=1;fontSize=14;" parent="1" vertex="1">
          <mxGeometry x="460" y="790" width="120" height="60" as="geometry" />
        </mxCell>
        <mxCell id="ElFFhCFkvkXkjmspQPzn-36" value="显示提交过的题目状态信息" style="rounded=0;whiteSpace=wrap;html=1;fontSize=14;" parent="1" vertex="1">
          <mxGeometry x="460" y="920" width="120" height="60" as="geometry" />
        </mxCell>
        <mxCell id="ElFFhCFkvkXkjmspQPzn-41" value="本人查看" style="text;html=1;align=center;verticalAlign=middle;resizable=0;points=[];autosize=1;strokeColor=none;fillColor=none;fontSize=14;" parent="1" vertex="1">
          <mxGeometry x="385" y="660" width="70" height="20" as="geometry" />
        </mxCell>
        <mxCell id="ElFFhCFkvkXkjmspQPzn-51" style="edgeStyle=orthogonalEdgeStyle;rounded=0;orthogonalLoop=1;jettySize=auto;html=1;exitX=1;exitY=0.5;exitDx=0;exitDy=0;entryX=0;entryY=0.5;entryDx=0;entryDy=0;fontSize=14;" parent="1" source="ElFFhCFkvkXkjmspQPzn-45" target="ElFFhCFkvkXkjmspQPzn-46" edge="1">
          <mxGeometry relative="1" as="geometry">
            <Array as="points">
              <mxPoint x="390" y="1290" />
              <mxPoint x="390" y="1080" />
            </Array>
          </mxGeometry>
        </mxCell>
        <mxCell id="ElFFhCFkvkXkjmspQPzn-52" style="edgeStyle=orthogonalEdgeStyle;rounded=0;orthogonalLoop=1;jettySize=auto;html=1;exitX=1;exitY=0.5;exitDx=0;exitDy=0;entryX=0;entryY=0.5;entryDx=0;entryDy=0;fontSize=14;" parent="1" source="ElFFhCFkvkXkjmspQPzn-45" target="ElFFhCFkvkXkjmspQPzn-47" edge="1">
          <mxGeometry relative="1" as="geometry">
            <Array as="points">
              <mxPoint x="390" y="1290" />
              <mxPoint x="390" y="1210" />
            </Array>
          </mxGeometry>
        </mxCell>
        <mxCell id="ElFFhCFkvkXkjmspQPzn-53" style="edgeStyle=orthogonalEdgeStyle;rounded=0;orthogonalLoop=1;jettySize=auto;html=1;exitX=1;exitY=0.5;exitDx=0;exitDy=0;fontSize=14;" parent="1" source="ElFFhCFkvkXkjmspQPzn-45" target="ElFFhCFkvkXkjmspQPzn-48" edge="1">
          <mxGeometry relative="1" as="geometry" />
        </mxCell>
        <mxCell id="ElFFhCFkvkXkjmspQPzn-54" style="edgeStyle=orthogonalEdgeStyle;rounded=0;orthogonalLoop=1;jettySize=auto;html=1;exitX=1;exitY=0.5;exitDx=0;exitDy=0;entryX=0;entryY=0.5;entryDx=0;entryDy=0;fontSize=14;" parent="1" source="ElFFhCFkvkXkjmspQPzn-45" target="ElFFhCFkvkXkjmspQPzn-49" edge="1">
          <mxGeometry relative="1" as="geometry" />
        </mxCell>
        <mxCell id="ElFFhCFkvkXkjmspQPzn-55" style="edgeStyle=orthogonalEdgeStyle;rounded=0;orthogonalLoop=1;jettySize=auto;html=1;exitX=1;exitY=0.5;exitDx=0;exitDy=0;entryX=0;entryY=0.5;entryDx=0;entryDy=0;fontSize=14;" parent="1" source="ElFFhCFkvkXkjmspQPzn-45" target="ElFFhCFkvkXkjmspQPzn-50" edge="1">
          <mxGeometry relative="1" as="geometry" />
        </mxCell>
        <mxCell id="ElFFhCFkvkXkjmspQPzn-45" value="系统题库" style="rounded=0;whiteSpace=wrap;html=1;fontSize=14;" parent="1" vertex="1">
          <mxGeometry x="200" y="1260" width="120" height="60" as="geometry" />
        </mxCell>
        <mxCell id="ElFFhCFkvkXkjmspQPzn-46" value="搜索题目（模糊匹配）" style="rounded=0;whiteSpace=wrap;html=1;fontSize=14;" parent="1" vertex="1">
          <mxGeometry x="455" y="1050" width="120" height="60" as="geometry" />
        </mxCell>
        <mxCell id="ElFFhCFkvkXkjmspQPzn-47" value="标签筛选题目" style="rounded=0;whiteSpace=wrap;html=1;fontSize=14;" parent="1" vertex="1">
          <mxGeometry x="460" y="1180" width="120" height="60" as="geometry" />
        </mxCell>
        <mxCell id="ElFFhCFkvkXkjmspQPzn-48" value="难度筛选题目" style="rounded=0;whiteSpace=wrap;html=1;fontSize=14;" parent="1" vertex="1">
          <mxGeometry x="460" y="1300" width="120" height="60" as="geometry" />
        </mxCell>
        <mxCell id="ElFFhCFkvkXkjmspQPzn-49" value="过题人数筛选题目" style="rounded=0;whiteSpace=wrap;html=1;fontSize=14;" parent="1" vertex="1">
          <mxGeometry x="460" y="1420" width="120" height="60" as="geometry" />
        </mxCell>
        <mxCell id="ElFFhCFkvkXkjmspQPzn-50" value="随机一道题" style="rounded=0;whiteSpace=wrap;html=1;fontSize=14;" parent="1" vertex="1">
          <mxGeometry x="460" y="1550" width="120" height="60" as="geometry" />
        </mxCell>
        <mxCell id="ElFFhCFkvkXkjmspQPzn-62" style="edgeStyle=orthogonalEdgeStyle;rounded=0;orthogonalLoop=1;jettySize=auto;html=1;exitX=1;exitY=0.5;exitDx=0;exitDy=0;entryX=0;entryY=0.5;entryDx=0;entryDy=0;fontSize=14;" parent="1" source="ElFFhCFkvkXkjmspQPzn-58" target="ElFFhCFkvkXkjmspQPzn-59" edge="1">
          <mxGeometry relative="1" as="geometry" />
        </mxCell>
        <mxCell id="ElFFhCFkvkXkjmspQPzn-63" style="edgeStyle=orthogonalEdgeStyle;rounded=0;orthogonalLoop=1;jettySize=auto;html=1;exitX=1;exitY=0.5;exitDx=0;exitDy=0;entryX=0;entryY=0.5;entryDx=0;entryDy=0;fontSize=14;" parent="1" source="ElFFhCFkvkXkjmspQPzn-58" target="ElFFhCFkvkXkjmspQPzn-60" edge="1">
          <mxGeometry relative="1" as="geometry" />
        </mxCell>
        <mxCell id="ElFFhCFkvkXkjmspQPzn-64" style="edgeStyle=orthogonalEdgeStyle;rounded=0;orthogonalLoop=1;jettySize=auto;html=1;exitX=1;exitY=0.5;exitDx=0;exitDy=0;entryX=0;entryY=0.5;entryDx=0;entryDy=0;fontSize=14;" parent="1" source="ElFFhCFkvkXkjmspQPzn-58" target="ElFFhCFkvkXkjmspQPzn-61" edge="1">
          <mxGeometry relative="1" as="geometry" />
        </mxCell>
        <mxCell id="ElFFhCFkvkXkjmspQPzn-83" style="edgeStyle=orthogonalEdgeStyle;rounded=0;orthogonalLoop=1;jettySize=auto;html=1;exitX=1;exitY=0.5;exitDx=0;exitDy=0;entryX=0;entryY=0.5;entryDx=0;entryDy=0;fontSize=14;" parent="1" source="ElFFhCFkvkXkjmspQPzn-58" target="ElFFhCFkvkXkjmspQPzn-82" edge="1">
          <mxGeometry relative="1" as="geometry">
            <mxPoint x="700" y="1720" as="targetPoint" />
            <Array as="points">
              <mxPoint x="640" y="1910" />
              <mxPoint x="640" y="1720" />
            </Array>
          </mxGeometry>
        </mxCell>
        <mxCell id="ElFFhCFkvkXkjmspQPzn-58" value="录题" style="rounded=0;whiteSpace=wrap;html=1;fontSize=14;" parent="1" vertex="1">
          <mxGeometry x="460" y="1880" width="120" height="60" as="geometry" />
        </mxCell>
        <mxCell id="ElFFhCFkvkXkjmspQPzn-66" style="edgeStyle=orthogonalEdgeStyle;rounded=0;orthogonalLoop=1;jettySize=auto;html=1;exitX=1;exitY=0.5;exitDx=0;exitDy=0;entryX=0;entryY=0.5;entryDx=0;entryDy=0;fontSize=14;" parent="1" source="ElFFhCFkvkXkjmspQPzn-59" target="ElFFhCFkvkXkjmspQPzn-65" edge="1">
          <mxGeometry relative="1" as="geometry" />
        </mxCell>
        <mxCell id="ElFFhCFkvkXkjmspQPzn-59" value="输入题面信息" style="rounded=0;whiteSpace=wrap;html=1;fontSize=14;" parent="1" vertex="1">
          <mxGeometry x="700" y="1810" width="120" height="60" as="geometry" />
        </mxCell>
        <mxCell id="ElFFhCFkvkXkjmspQPzn-67" style="edgeStyle=orthogonalEdgeStyle;rounded=0;orthogonalLoop=1;jettySize=auto;html=1;exitX=1;exitY=0.5;exitDx=0;exitDy=0;fontSize=14;entryX=0;entryY=0.5;entryDx=0;entryDy=0;" parent="1" source="ElFFhCFkvkXkjmspQPzn-60" target="ElFFhCFkvkXkjmspQPzn-65" edge="1">
          <mxGeometry relative="1" as="geometry">
            <mxPoint x="930" y="2000" as="targetPoint" />
          </mxGeometry>
        </mxCell>
        <mxCell id="ElFFhCFkvkXkjmspQPzn-60" value="输入样例信息" style="rounded=0;whiteSpace=wrap;html=1;fontSize=14;" parent="1" vertex="1">
          <mxGeometry x="700" y="1970" width="120" height="60" as="geometry" />
        </mxCell>
        <mxCell id="ElFFhCFkvkXkjmspQPzn-68" style="edgeStyle=orthogonalEdgeStyle;rounded=0;orthogonalLoop=1;jettySize=auto;html=1;exitX=1;exitY=0.5;exitDx=0;exitDy=0;entryX=0;entryY=0.5;entryDx=0;entryDy=0;fontSize=14;" parent="1" source="ElFFhCFkvkXkjmspQPzn-61" target="ElFFhCFkvkXkjmspQPzn-65" edge="1">
          <mxGeometry relative="1" as="geometry" />
        </mxCell>
        <mxCell id="ElFFhCFkvkXkjmspQPzn-61" value="输入样例说明" style="rounded=0;whiteSpace=wrap;html=1;fontSize=14;" parent="1" vertex="1">
          <mxGeometry x="700" y="2100" width="120" height="60" as="geometry" />
        </mxCell>
        <mxCell id="ElFFhCFkvkXkjmspQPzn-86" style="edgeStyle=orthogonalEdgeStyle;rounded=0;orthogonalLoop=1;jettySize=auto;html=1;exitX=1;exitY=0.5;exitDx=0;exitDy=0;fontSize=14;" parent="1" source="ElFFhCFkvkXkjmspQPzn-65" target="ElFFhCFkvkXkjmspQPzn-69" edge="1">
          <mxGeometry relative="1" as="geometry" />
        </mxCell>
        <mxCell id="ElFFhCFkvkXkjmspQPzn-65" value="上传数据" style="rounded=0;whiteSpace=wrap;html=1;fontSize=14;" parent="1" vertex="1">
          <mxGeometry x="947" y="1920" width="120" height="60" as="geometry" />
        </mxCell>
        <mxCell id="ElFFhCFkvkXkjmspQPzn-90" style="edgeStyle=orthogonalEdgeStyle;rounded=0;orthogonalLoop=1;jettySize=auto;html=1;exitX=1;exitY=0.5;exitDx=0;exitDy=0;fontSize=14;" parent="1" source="ElFFhCFkvkXkjmspQPzn-69" edge="1">
          <mxGeometry relative="1" as="geometry">
            <mxPoint x="1410" y="1950" as="targetPoint" />
          </mxGeometry>
        </mxCell>
        <mxCell id="ElFFhCFkvkXkjmspQPzn-69" value="上传标程" style="rounded=0;whiteSpace=wrap;html=1;fontSize=14;" parent="1" vertex="1">
          <mxGeometry x="1150" y="1920" width="120" height="60" as="geometry" />
        </mxCell>
        <mxCell id="ElFFhCFkvkXkjmspQPzn-70" value="登陆成功" style="rounded=0;whiteSpace=wrap;html=1;fontSize=14;" parent="1" vertex="1">
          <mxGeometry x="770" y="-260" width="120" height="60" as="geometry" />
        </mxCell>
        <mxCell id="ElFFhCFkvkXkjmspQPzn-73" value="正确" style="text;html=1;align=center;verticalAlign=middle;resizable=0;points=[];autosize=1;strokeColor=none;fillColor=none;fontSize=14;" parent="1" vertex="1">
          <mxGeometry x="690" y="-260" width="40" height="20" as="geometry" />
        </mxCell>
        <mxCell id="ElFFhCFkvkXkjmspQPzn-74" value="数据入库" style="rounded=0;whiteSpace=wrap;html=1;fontSize=14;" parent="1" vertex="1">
          <mxGeometry x="790" y="150" width="120" height="60" as="geometry" />
        </mxCell>
        <mxCell id="ElFFhCFkvkXkjmspQPzn-84" style="edgeStyle=orthogonalEdgeStyle;rounded=0;orthogonalLoop=1;jettySize=auto;html=1;entryX=0;entryY=0.5;entryDx=0;entryDy=0;fontSize=14;" parent="1" target="ElFFhCFkvkXkjmspQPzn-65" edge="1">
          <mxGeometry relative="1" as="geometry">
            <mxPoint x="820" y="1720" as="sourcePoint" />
          </mxGeometry>
        </mxCell>
        <mxCell id="ElFFhCFkvkXkjmspQPzn-82" value="选择题目标签，时限，内存" style="rounded=0;whiteSpace=wrap;html=1;fontSize=14;" parent="1" vertex="1">
          <mxGeometry x="720" y="1690" width="120" height="60" as="geometry" />
        </mxCell>
        <mxCell id="ElFFhCFkvkXkjmspQPzn-88" value="标记该题目合法" style="rounded=0;whiteSpace=wrap;html=1;fontSize=14;" parent="1" vertex="1">
          <mxGeometry x="1410" y="1920" width="120" height="60" as="geometry" />
        </mxCell>
        <mxCell id="ElFFhCFkvkXkjmspQPzn-95" style="edgeStyle=orthogonalEdgeStyle;rounded=0;orthogonalLoop=1;jettySize=auto;html=1;exitX=1;exitY=0.5;exitDx=0;exitDy=0;entryX=0;entryY=0.5;entryDx=0;entryDy=0;fontSize=14;" parent="1" source="ElFFhCFkvkXkjmspQPzn-93" target="ElFFhCFkvkXkjmspQPzn-58" edge="1">
          <mxGeometry relative="1" as="geometry">
            <Array as="points">
              <mxPoint x="410" y="2320" />
              <mxPoint x="410" y="1910" />
            </Array>
          </mxGeometry>
        </mxCell>
        <mxCell id="ElFFhCFkvkXkjmspQPzn-97" style="edgeStyle=orthogonalEdgeStyle;rounded=0;orthogonalLoop=1;jettySize=auto;html=1;exitX=1;exitY=0.5;exitDx=0;exitDy=0;entryX=0;entryY=0.5;entryDx=0;entryDy=0;fontSize=14;" parent="1" source="ElFFhCFkvkXkjmspQPzn-93" target="ElFFhCFkvkXkjmspQPzn-96" edge="1">
          <mxGeometry relative="1" as="geometry">
            <Array as="points">
              <mxPoint x="330" y="2320" />
            </Array>
          </mxGeometry>
        </mxCell>
        <mxCell id="ElFFhCFkvkXkjmspQPzn-121" style="edgeStyle=orthogonalEdgeStyle;rounded=0;orthogonalLoop=1;jettySize=auto;html=1;exitX=1;exitY=0.5;exitDx=0;exitDy=0;entryX=0;entryY=0.5;entryDx=0;entryDy=0;fontSize=14;" parent="1" source="ElFFhCFkvkXkjmspQPzn-93" target="ElFFhCFkvkXkjmspQPzn-101" edge="1">
          <mxGeometry relative="1" as="geometry">
            <Array as="points">
              <mxPoint x="410" y="2320" />
              <mxPoint x="410" y="2530" />
            </Array>
          </mxGeometry>
        </mxCell>
        <mxCell id="ElFFhCFkvkXkjmspQPzn-122" style="edgeStyle=orthogonalEdgeStyle;rounded=0;orthogonalLoop=1;jettySize=auto;html=1;exitX=1;exitY=0.5;exitDx=0;exitDy=0;entryX=0;entryY=0.5;entryDx=0;entryDy=0;fontSize=14;" parent="1" source="ElFFhCFkvkXkjmspQPzn-93" target="ElFFhCFkvkXkjmspQPzn-119" edge="1">
          <mxGeometry relative="1" as="geometry">
            <Array as="points">
              <mxPoint x="410" y="2320" />
              <mxPoint x="410" y="2710" />
            </Array>
          </mxGeometry>
        </mxCell>
        <mxCell id="ElFFhCFkvkXkjmspQPzn-124" style="edgeStyle=orthogonalEdgeStyle;rounded=0;orthogonalLoop=1;jettySize=auto;html=1;exitX=1;exitY=0.5;exitDx=0;exitDy=0;entryX=0;entryY=0.5;entryDx=0;entryDy=0;fontSize=14;" parent="1" source="ElFFhCFkvkXkjmspQPzn-93" target="ElFFhCFkvkXkjmspQPzn-123" edge="1">
          <mxGeometry relative="1" as="geometry">
            <Array as="points">
              <mxPoint x="410" y="2320" />
              <mxPoint x="410" y="2893" />
            </Array>
          </mxGeometry>
        </mxCell>
        <mxCell id="ElFFhCFkvkXkjmspQPzn-93" value="个人题库系统" style="rounded=0;whiteSpace=wrap;html=1;fontSize=14;" parent="1" vertex="1">
          <mxGeometry x="200" y="2290" width="120" height="60" as="geometry" />
        </mxCell>
        <mxCell id="ElFFhCFkvkXkjmspQPzn-112" style="edgeStyle=orthogonalEdgeStyle;rounded=0;orthogonalLoop=1;jettySize=auto;html=1;exitX=1;exitY=0.5;exitDx=0;exitDy=0;fontSize=14;" parent="1" source="ElFFhCFkvkXkjmspQPzn-96" target="ElFFhCFkvkXkjmspQPzn-107" edge="1">
          <mxGeometry relative="1" as="geometry" />
        </mxCell>
        <mxCell id="ElFFhCFkvkXkjmspQPzn-96" value="验证成功的题" style="rounded=0;whiteSpace=wrap;html=1;fontSize=14;" parent="1" vertex="1">
          <mxGeometry x="470" y="2290" width="120" height="60" as="geometry" />
        </mxCell>
        <mxCell id="ElFFhCFkvkXkjmspQPzn-114" style="edgeStyle=orthogonalEdgeStyle;rounded=0;orthogonalLoop=1;jettySize=auto;html=1;exitX=1;exitY=0.5;exitDx=0;exitDy=0;entryX=0;entryY=0.5;entryDx=0;entryDy=0;fontSize=14;" parent="1" source="ElFFhCFkvkXkjmspQPzn-101" target="ElFFhCFkvkXkjmspQPzn-113" edge="1">
          <mxGeometry relative="1" as="geometry" />
        </mxCell>
        <mxCell id="ElFFhCFkvkXkjmspQPzn-101" value="验证不成功的题" style="rounded=0;whiteSpace=wrap;html=1;fontSize=14;" parent="1" vertex="1">
          <mxGeometry x="470" y="2500" width="120" height="60" as="geometry" />
        </mxCell>
        <mxCell id="ElFFhCFkvkXkjmspQPzn-104" value="" style="curved=1;endArrow=classic;html=1;rounded=0;fontSize=14;exitX=0.567;exitY=0.983;exitDx=0;exitDy=0;exitPerimeter=0;entryX=0.5;entryY=0;entryDx=0;entryDy=0;" parent="1" source="ElFFhCFkvkXkjmspQPzn-88" target="ElFFhCFkvkXkjmspQPzn-96" edge="1">
          <mxGeometry width="50" height="50" relative="1" as="geometry">
            <mxPoint x="1230" y="2140" as="sourcePoint" />
            <mxPoint x="1280" y="2090" as="targetPoint" />
            <Array as="points">
              <mxPoint x="1280" y="2140" />
              <mxPoint x="1230" y="2090" />
              <mxPoint x="720" y="2180" />
            </Array>
          </mxGeometry>
        </mxCell>
        <mxCell id="ElFFhCFkvkXkjmspQPzn-106" value="验证成功" style="text;html=1;align=center;verticalAlign=middle;resizable=0;points=[];autosize=1;strokeColor=none;fillColor=none;fontSize=14;" parent="1" vertex="1">
          <mxGeometry x="1305" y="2050" width="70" height="20" as="geometry" />
        </mxCell>
        <mxCell id="ElFFhCFkvkXkjmspQPzn-107" value="选择加入系统的题库" style="rounded=0;whiteSpace=wrap;html=1;fontSize=14;" parent="1" vertex="1">
          <mxGeometry x="740" y="2290" width="120" height="60" as="geometry" />
        </mxCell>
        <mxCell id="ElFFhCFkvkXkjmspQPzn-108" value="" style="curved=1;endArrow=classic;html=1;rounded=0;fontSize=14;entryX=0.5;entryY=1;entryDx=0;entryDy=0;exitX=0;exitY=0.5;exitDx=0;exitDy=0;" parent="1" source="ElFFhCFkvkXkjmspQPzn-107" target="ElFFhCFkvkXkjmspQPzn-45" edge="1">
          <mxGeometry width="50" height="50" relative="1" as="geometry">
            <mxPoint x="690" y="2250" as="sourcePoint" />
            <mxPoint x="650" y="2150" as="targetPoint" />
            <Array as="points">
              <mxPoint x="650" y="2200" />
              <mxPoint x="600" y="2150" />
            </Array>
          </mxGeometry>
        </mxCell>
        <mxCell id="ElFFhCFkvkXkjmspQPzn-110" value="是" style="text;html=1;align=center;verticalAlign=middle;resizable=0;points=[];autosize=1;strokeColor=none;fillColor=none;fontSize=14;" parent="1" vertex="1">
          <mxGeometry x="615" y="2160" width="30" height="20" as="geometry" />
        </mxCell>
        <mxCell id="ElFFhCFkvkXkjmspQPzn-113" value="选择是否重新验题" style="rounded=0;whiteSpace=wrap;html=1;fontSize=14;" parent="1" vertex="1">
          <mxGeometry x="740" y="2500" width="120" height="60" as="geometry" />
        </mxCell>
        <mxCell id="ElFFhCFkvkXkjmspQPzn-115" value="" style="curved=1;endArrow=classic;html=1;rounded=0;fontSize=14;exitX=0.581;exitY=1.064;exitDx=0;exitDy=0;exitPerimeter=0;entryX=0.435;entryY=-0.019;entryDx=0;entryDy=0;entryPerimeter=0;" parent="1" source="ElFFhCFkvkXkjmspQPzn-88" target="ElFFhCFkvkXkjmspQPzn-101" edge="1">
          <mxGeometry width="50" height="50" relative="1" as="geometry">
            <mxPoint x="1410" y="2200" as="sourcePoint" />
            <mxPoint x="1460" y="2150" as="targetPoint" />
            <Array as="points">
              <mxPoint x="1460" y="2200" />
              <mxPoint x="1410" y="2150" />
            </Array>
          </mxGeometry>
        </mxCell>
        <mxCell id="ElFFhCFkvkXkjmspQPzn-116" value="验证不成功" style="text;html=1;align=center;verticalAlign=middle;resizable=0;points=[];autosize=1;strokeColor=none;fillColor=none;fontSize=14;" parent="1" vertex="1">
          <mxGeometry x="1445" y="2050" width="90" height="20" as="geometry" />
        </mxCell>
        <mxCell id="ElFFhCFkvkXkjmspQPzn-117" value="" style="curved=1;endArrow=classic;html=1;rounded=0;fontSize=14;exitX=1;exitY=0.5;exitDx=0;exitDy=0;entryX=0.831;entryY=1.05;entryDx=0;entryDy=0;entryPerimeter=0;" parent="1" source="ElFFhCFkvkXkjmspQPzn-113" target="ElFFhCFkvkXkjmspQPzn-58" edge="1">
          <mxGeometry width="50" height="50" relative="1" as="geometry">
            <mxPoint x="980" y="2450" as="sourcePoint" />
            <mxPoint x="1030" y="2400" as="targetPoint" />
            <Array as="points">
              <mxPoint x="1030" y="2450" />
              <mxPoint x="980" y="2400" />
            </Array>
          </mxGeometry>
        </mxCell>
        <mxCell id="ElFFhCFkvkXkjmspQPzn-118" value="是" style="text;html=1;align=center;verticalAlign=middle;resizable=0;points=[];autosize=1;strokeColor=none;fillColor=none;fontSize=14;" parent="1" vertex="1">
          <mxGeometry x="925" y="2450" width="30" height="20" as="geometry" />
        </mxCell>
        <mxCell id="ElFFhCFkvkXkjmspQPzn-119" value="修改题目信息" style="rounded=0;whiteSpace=wrap;html=1;fontSize=14;" parent="1" vertex="1">
          <mxGeometry x="470" y="2680" width="120" height="60" as="geometry" />
        </mxCell>
        <mxCell id="ElFFhCFkvkXkjmspQPzn-120" value="" style="curved=1;endArrow=classic;html=1;rounded=0;fontSize=14;exitX=1;exitY=0.5;exitDx=0;exitDy=0;entryX=0.75;entryY=1;entryDx=0;entryDy=0;" parent="1" source="ElFFhCFkvkXkjmspQPzn-119" target="ElFFhCFkvkXkjmspQPzn-58" edge="1">
          <mxGeometry width="50" height="50" relative="1" as="geometry">
            <mxPoint x="645" y="2710" as="sourcePoint" />
            <mxPoint x="570" y="1950" as="targetPoint" />
            <Array as="points">
              <mxPoint x="695" y="2710" />
              <mxPoint x="645" y="2660" />
            </Array>
          </mxGeometry>
        </mxCell>
        <mxCell id="ElFFhCFkvkXkjmspQPzn-123" value="选择题目添加用户一起管理" style="rounded=0;whiteSpace=wrap;html=1;fontSize=14;" parent="1" vertex="1">
          <mxGeometry x="470" y="2862.5" width="120" height="60" as="geometry" />
        </mxCell>
        <mxCell id="ElFFhCFkvkXkjmspQPzn-132" style="edgeStyle=orthogonalEdgeStyle;rounded=0;orthogonalLoop=1;jettySize=auto;html=1;exitX=1;exitY=0.5;exitDx=0;exitDy=0;entryX=0;entryY=0.5;entryDx=0;entryDy=0;fontSize=14;" parent="1" source="ElFFhCFkvkXkjmspQPzn-126" target="ElFFhCFkvkXkjmspQPzn-128" edge="1">
          <mxGeometry relative="1" as="geometry" />
        </mxCell>
        <mxCell id="ElFFhCFkvkXkjmspQPzn-133" style="edgeStyle=orthogonalEdgeStyle;rounded=0;orthogonalLoop=1;jettySize=auto;html=1;exitX=1;exitY=0.5;exitDx=0;exitDy=0;entryX=0;entryY=0.5;entryDx=0;entryDy=0;fontSize=14;" parent="1" source="ElFFhCFkvkXkjmspQPzn-126" target="ElFFhCFkvkXkjmspQPzn-129" edge="1">
          <mxGeometry relative="1" as="geometry" />
        </mxCell>
        <mxCell id="ElFFhCFkvkXkjmspQPzn-134" style="edgeStyle=orthogonalEdgeStyle;rounded=0;orthogonalLoop=1;jettySize=auto;html=1;exitX=1;exitY=0.5;exitDx=0;exitDy=0;entryX=0;entryY=0.5;entryDx=0;entryDy=0;fontSize=14;" parent="1" source="ElFFhCFkvkXkjmspQPzn-126" target="ElFFhCFkvkXkjmspQPzn-130" edge="1">
          <mxGeometry relative="1" as="geometry" />
        </mxCell>
        <mxCell id="ElFFhCFkvkXkjmspQPzn-135" style="edgeStyle=orthogonalEdgeStyle;rounded=0;orthogonalLoop=1;jettySize=auto;html=1;exitX=1;exitY=0.5;exitDx=0;exitDy=0;entryX=0;entryY=0.5;entryDx=0;entryDy=0;fontSize=14;" parent="1" source="ElFFhCFkvkXkjmspQPzn-126" target="ElFFhCFkvkXkjmspQPzn-131" edge="1">
          <mxGeometry relative="1" as="geometry" />
        </mxCell>
        <mxCell id="ElFFhCFkvkXkjmspQPzn-136" style="edgeStyle=orthogonalEdgeStyle;rounded=0;orthogonalLoop=1;jettySize=auto;html=1;exitX=1;exitY=0.5;exitDx=0;exitDy=0;entryX=0.001;entryY=0.607;entryDx=0;entryDy=0;entryPerimeter=0;fontSize=14;" parent="1" source="ElFFhCFkvkXkjmspQPzn-126" target="ElFFhCFkvkXkjmspQPzn-127" edge="1">
          <mxGeometry relative="1" as="geometry" />
        </mxCell>
        <mxCell id="ElFFhCFkvkXkjmspQPzn-126" value="创建比赛" style="rounded=0;whiteSpace=wrap;html=1;fontSize=14;" parent="1" vertex="1">
          <mxGeometry x="470" y="3250" width="120" height="60" as="geometry" />
        </mxCell>
        <mxCell id="ElFFhCFkvkXkjmspQPzn-142" style="edgeStyle=orthogonalEdgeStyle;rounded=0;orthogonalLoop=1;jettySize=auto;html=1;exitX=1;exitY=0.5;exitDx=0;exitDy=0;entryX=0;entryY=0.5;entryDx=0;entryDy=0;fontSize=14;" parent="1" source="ElFFhCFkvkXkjmspQPzn-127" target="ElFFhCFkvkXkjmspQPzn-137" edge="1">
          <mxGeometry relative="1" as="geometry" />
        </mxCell>
        <mxCell id="ElFFhCFkvkXkjmspQPzn-127" value="从自己的题库添加题目到比赛，或者从公开的题库导入" style="rounded=0;whiteSpace=wrap;html=1;fontSize=14;" parent="1" vertex="1">
          <mxGeometry x="750" y="3490" width="120" height="60" as="geometry" />
        </mxCell>
        <mxCell id="ElFFhCFkvkXkjmspQPzn-138" style="edgeStyle=orthogonalEdgeStyle;rounded=0;orthogonalLoop=1;jettySize=auto;html=1;exitX=1;exitY=0.5;exitDx=0;exitDy=0;entryX=0;entryY=0.5;entryDx=0;entryDy=0;fontSize=14;" parent="1" source="ElFFhCFkvkXkjmspQPzn-128" target="ElFFhCFkvkXkjmspQPzn-137" edge="1">
          <mxGeometry relative="1" as="geometry" />
        </mxCell>
        <mxCell id="ElFFhCFkvkXkjmspQPzn-128" value="输入比赛信息" style="rounded=0;whiteSpace=wrap;html=1;fontSize=14;" parent="1" vertex="1">
          <mxGeometry x="750" y="3080" width="120" height="60" as="geometry" />
        </mxCell>
        <mxCell id="ElFFhCFkvkXkjmspQPzn-139" style="edgeStyle=orthogonalEdgeStyle;rounded=0;orthogonalLoop=1;jettySize=auto;html=1;fontSize=14;entryX=0;entryY=0.5;entryDx=0;entryDy=0;" parent="1" source="ElFFhCFkvkXkjmspQPzn-129" target="ElFFhCFkvkXkjmspQPzn-137" edge="1">
          <mxGeometry relative="1" as="geometry">
            <mxPoint x="890" y="3220" as="targetPoint" />
          </mxGeometry>
        </mxCell>
        <mxCell id="ElFFhCFkvkXkjmspQPzn-129" value="选择比赛赛制" style="rounded=0;whiteSpace=wrap;html=1;fontSize=14;" parent="1" vertex="1">
          <mxGeometry x="750" y="3190" width="120" height="60" as="geometry" />
        </mxCell>
        <mxCell id="ElFFhCFkvkXkjmspQPzn-140" style="edgeStyle=orthogonalEdgeStyle;rounded=0;orthogonalLoop=1;jettySize=auto;html=1;exitX=1;exitY=0.5;exitDx=0;exitDy=0;entryX=0;entryY=0.5;entryDx=0;entryDy=0;fontSize=14;" parent="1" source="ElFFhCFkvkXkjmspQPzn-130" target="ElFFhCFkvkXkjmspQPzn-137" edge="1">
          <mxGeometry relative="1" as="geometry" />
        </mxCell>
        <mxCell id="ElFFhCFkvkXkjmspQPzn-130" value="设置比赛时间" style="rounded=0;whiteSpace=wrap;html=1;fontSize=14;" parent="1" vertex="1">
          <mxGeometry x="750" y="3300" width="120" height="60" as="geometry" />
        </mxCell>
        <mxCell id="ElFFhCFkvkXkjmspQPzn-141" style="edgeStyle=orthogonalEdgeStyle;rounded=0;orthogonalLoop=1;jettySize=auto;html=1;exitX=1;exitY=0.5;exitDx=0;exitDy=0;entryX=0;entryY=0.5;entryDx=0;entryDy=0;fontSize=14;" parent="1" source="ElFFhCFkvkXkjmspQPzn-131" target="ElFFhCFkvkXkjmspQPzn-137" edge="1">
          <mxGeometry relative="1" as="geometry" />
        </mxCell>
        <mxCell id="ElFFhCFkvkXkjmspQPzn-131" value="是否公开（否录入密码）" style="rounded=0;whiteSpace=wrap;html=1;fontSize=14;" parent="1" vertex="1">
          <mxGeometry x="750" y="3390" width="120" height="60" as="geometry" />
        </mxCell>
        <mxCell id="ElFFhCFkvkXkjmspQPzn-137" value="比赛创建成功" style="rounded=0;whiteSpace=wrap;html=1;fontSize=14;" parent="1" vertex="1">
          <mxGeometry x="1010" y="3260" width="120" height="60" as="geometry" />
        </mxCell>
        <mxCell id="ElFFhCFkvkXkjmspQPzn-144" style="edgeStyle=orthogonalEdgeStyle;rounded=0;orthogonalLoop=1;jettySize=auto;html=1;entryX=0;entryY=0.5;entryDx=0;entryDy=0;fontSize=14;" parent="1" source="ElFFhCFkvkXkjmspQPzn-143" target="ElFFhCFkvkXkjmspQPzn-126" edge="1">
          <mxGeometry relative="1" as="geometry">
            <Array as="points">
              <mxPoint x="420" y="3420" />
              <mxPoint x="420" y="3280" />
            </Array>
          </mxGeometry>
        </mxCell>
        <mxCell id="ElFFhCFkvkXkjmspQPzn-150" style="edgeStyle=orthogonalEdgeStyle;rounded=0;orthogonalLoop=1;jettySize=auto;html=1;exitX=1;exitY=0.5;exitDx=0;exitDy=0;entryX=0;entryY=0.5;entryDx=0;entryDy=0;fontSize=14;" parent="1" source="ElFFhCFkvkXkjmspQPzn-143" target="ElFFhCFkvkXkjmspQPzn-145" edge="1">
          <mxGeometry relative="1" as="geometry">
            <Array as="points">
              <mxPoint x="420" y="3420" />
              <mxPoint x="420" y="3680" />
            </Array>
          </mxGeometry>
        </mxCell>
        <mxCell id="ElFFhCFkvkXkjmspQPzn-185" style="edgeStyle=orthogonalEdgeStyle;rounded=0;orthogonalLoop=1;jettySize=auto;html=1;exitX=1;exitY=0.5;exitDx=0;exitDy=0;entryX=0;entryY=0.75;entryDx=0;entryDy=0;fontSize=14;" parent="1" source="ElFFhCFkvkXkjmspQPzn-143" target="ElFFhCFkvkXkjmspQPzn-178" edge="1">
          <mxGeometry relative="1" as="geometry">
            <Array as="points">
              <mxPoint x="420" y="3420" />
              <mxPoint x="420" y="4055" />
            </Array>
          </mxGeometry>
        </mxCell>
        <mxCell id="ElFFhCFkvkXkjmspQPzn-187" style="edgeStyle=orthogonalEdgeStyle;rounded=0;orthogonalLoop=1;jettySize=auto;html=1;exitX=1;exitY=0.5;exitDx=0;exitDy=0;entryX=0;entryY=0.5;entryDx=0;entryDy=0;fontSize=14;" parent="1" source="ElFFhCFkvkXkjmspQPzn-143" target="ElFFhCFkvkXkjmspQPzn-186" edge="1">
          <mxGeometry relative="1" as="geometry">
            <Array as="points">
              <mxPoint x="420" y="3420" />
              <mxPoint x="420" y="4390" />
            </Array>
          </mxGeometry>
        </mxCell>
        <mxCell id="ElFFhCFkvkXkjmspQPzn-236" style="edgeStyle=orthogonalEdgeStyle;rounded=0;orthogonalLoop=1;jettySize=auto;html=1;exitX=1;exitY=0.5;exitDx=0;exitDy=0;entryX=0;entryY=0.5;entryDx=0;entryDy=0;fontSize=14;" parent="1" source="ElFFhCFkvkXkjmspQPzn-143" target="ElFFhCFkvkXkjmspQPzn-232" edge="1">
          <mxGeometry relative="1" as="geometry" />
        </mxCell>
        <mxCell id="ElFFhCFkvkXkjmspQPzn-143" value="比赛系统" style="rounded=0;whiteSpace=wrap;html=1;fontSize=14;" parent="1" vertex="1">
          <mxGeometry x="200" y="3390" width="120" height="60" as="geometry" />
        </mxCell>
        <mxCell id="ElFFhCFkvkXkjmspQPzn-148" style="edgeStyle=orthogonalEdgeStyle;rounded=0;orthogonalLoop=1;jettySize=auto;html=1;exitX=1;exitY=0.5;exitDx=0;exitDy=0;fontSize=14;" parent="1" source="ElFFhCFkvkXkjmspQPzn-145" target="ElFFhCFkvkXkjmspQPzn-146" edge="1">
          <mxGeometry relative="1" as="geometry" />
        </mxCell>
        <mxCell id="ElFFhCFkvkXkjmspQPzn-149" style="edgeStyle=orthogonalEdgeStyle;rounded=0;orthogonalLoop=1;jettySize=auto;html=1;exitX=1;exitY=0.5;exitDx=0;exitDy=0;entryX=0;entryY=0.5;entryDx=0;entryDy=0;fontSize=14;" parent="1" source="ElFFhCFkvkXkjmspQPzn-145" target="ElFFhCFkvkXkjmspQPzn-147" edge="1">
          <mxGeometry relative="1" as="geometry" />
        </mxCell>
        <mxCell id="ElFFhCFkvkXkjmspQPzn-145" value="报名比赛" style="rounded=0;whiteSpace=wrap;html=1;fontSize=14;" parent="1" vertex="1">
          <mxGeometry x="490" y="3650" width="120" height="60" as="geometry" />
        </mxCell>
        <mxCell id="ElFFhCFkvkXkjmspQPzn-146" value="报名公开比赛" style="rounded=0;whiteSpace=wrap;html=1;fontSize=14;" parent="1" vertex="1">
          <mxGeometry x="760" y="3590" width="120" height="60" as="geometry" />
        </mxCell>
        <mxCell id="ElFFhCFkvkXkjmspQPzn-147" value="报名私有比赛" style="rounded=0;whiteSpace=wrap;html=1;fontSize=14;" parent="1" vertex="1">
          <mxGeometry x="760" y="3720" width="120" height="60" as="geometry" />
        </mxCell>
        <mxCell id="ElFFhCFkvkXkjmspQPzn-157" style="edgeStyle=orthogonalEdgeStyle;rounded=0;orthogonalLoop=1;jettySize=auto;html=1;exitX=1;exitY=0.5;exitDx=0;exitDy=0;entryX=0;entryY=0.5;entryDx=0;entryDy=0;fontSize=14;" parent="1" source="ElFFhCFkvkXkjmspQPzn-152" target="ElFFhCFkvkXkjmspQPzn-154" edge="1">
          <mxGeometry relative="1" as="geometry" />
        </mxCell>
        <mxCell id="ElFFhCFkvkXkjmspQPzn-158" style="edgeStyle=orthogonalEdgeStyle;rounded=0;orthogonalLoop=1;jettySize=auto;html=1;exitX=1;exitY=0.5;exitDx=0;exitDy=0;fontSize=14;" parent="1" source="ElFFhCFkvkXkjmspQPzn-152" target="ElFFhCFkvkXkjmspQPzn-155" edge="1">
          <mxGeometry relative="1" as="geometry">
            <Array as="points">
              <mxPoint x="390" y="4820" />
              <mxPoint x="390" y="4682" />
            </Array>
          </mxGeometry>
        </mxCell>
        <mxCell id="ElFFhCFkvkXkjmspQPzn-159" style="edgeStyle=orthogonalEdgeStyle;rounded=0;orthogonalLoop=1;jettySize=auto;html=1;exitX=1;exitY=0.5;exitDx=0;exitDy=0;entryX=0;entryY=0.5;entryDx=0;entryDy=0;fontSize=14;" parent="1" source="ElFFhCFkvkXkjmspQPzn-152" target="ElFFhCFkvkXkjmspQPzn-156" edge="1">
          <mxGeometry relative="1" as="geometry" />
        </mxCell>
        <mxCell id="ElFFhCFkvkXkjmspQPzn-162" style="edgeStyle=orthogonalEdgeStyle;rounded=0;orthogonalLoop=1;jettySize=auto;html=1;exitX=1;exitY=0.5;exitDx=0;exitDy=0;entryX=0;entryY=0.5;entryDx=0;entryDy=0;fontSize=14;" parent="1" source="ElFFhCFkvkXkjmspQPzn-152" target="ElFFhCFkvkXkjmspQPzn-160" edge="1">
          <mxGeometry relative="1" as="geometry" />
        </mxCell>
        <mxCell id="ElFFhCFkvkXkjmspQPzn-163" style="edgeStyle=orthogonalEdgeStyle;rounded=0;orthogonalLoop=1;jettySize=auto;html=1;exitX=1;exitY=0.5;exitDx=0;exitDy=0;entryX=0;entryY=0.5;entryDx=0;entryDy=0;fontSize=14;" parent="1" source="ElFFhCFkvkXkjmspQPzn-152" target="ElFFhCFkvkXkjmspQPzn-161" edge="1">
          <mxGeometry relative="1" as="geometry" />
        </mxCell>
        <mxCell id="ElFFhCFkvkXkjmspQPzn-152" value="做题系统" style="rounded=0;whiteSpace=wrap;html=1;fontSize=14;" parent="1" vertex="1">
          <mxGeometry x="170" y="4790" width="120" height="60" as="geometry" />
        </mxCell>
        <mxCell id="ElFFhCFkvkXkjmspQPzn-154" value="查看题目信息" style="rounded=0;whiteSpace=wrap;html=1;fontSize=14;" parent="1" vertex="1">
          <mxGeometry x="490" y="4510" width="120" height="60" as="geometry" />
        </mxCell>
        <mxCell id="ElFFhCFkvkXkjmspQPzn-155" value="复制样列" style="rounded=0;whiteSpace=wrap;html=1;fontSize=14;" parent="1" vertex="1">
          <mxGeometry x="490" y="4652" width="120" height="60" as="geometry" />
        </mxCell>
        <mxCell id="ElFFhCFkvkXkjmspQPzn-169" style="edgeStyle=orthogonalEdgeStyle;rounded=0;orthogonalLoop=1;jettySize=auto;html=1;exitX=1;exitY=0.5;exitDx=0;exitDy=0;entryX=0;entryY=0.5;entryDx=0;entryDy=0;fontSize=14;" parent="1" source="ElFFhCFkvkXkjmspQPzn-156" target="ElFFhCFkvkXkjmspQPzn-164" edge="1">
          <mxGeometry relative="1" as="geometry" />
        </mxCell>
        <mxCell id="ElFFhCFkvkXkjmspQPzn-156" value="提交代码" style="rounded=0;whiteSpace=wrap;html=1;fontSize=14;" parent="1" vertex="1">
          <mxGeometry x="490" y="4790" width="120" height="60" as="geometry" />
        </mxCell>
        <mxCell id="ElFFhCFkvkXkjmspQPzn-160" value="题目提问" style="rounded=0;whiteSpace=wrap;html=1;fontSize=14;" parent="1" vertex="1">
          <mxGeometry x="490" y="4920" width="120" height="60" as="geometry" />
        </mxCell>
        <mxCell id="ElFFhCFkvkXkjmspQPzn-161" value="查看提交代码" style="rounded=0;whiteSpace=wrap;html=1;fontSize=14;" parent="1" vertex="1">
          <mxGeometry x="490" y="5080" width="120" height="60" as="geometry" />
        </mxCell>
        <mxCell id="ElFFhCFkvkXkjmspQPzn-173" style="edgeStyle=orthogonalEdgeStyle;rounded=0;orthogonalLoop=1;jettySize=auto;html=1;exitX=1;exitY=0.5;exitDx=0;exitDy=0;fontSize=14;" parent="1" source="ElFFhCFkvkXkjmspQPzn-164" target="ElFFhCFkvkXkjmspQPzn-172" edge="1">
          <mxGeometry relative="1" as="geometry" />
        </mxCell>
        <mxCell id="ElFFhCFkvkXkjmspQPzn-164" value="查询判题系统的结果" style="rounded=0;whiteSpace=wrap;html=1;fontSize=14;" parent="1" vertex="1">
          <mxGeometry x="790" y="4790" width="120" height="60" as="geometry" />
        </mxCell>
        <mxCell id="ElFFhCFkvkXkjmspQPzn-172" value="显示信息" style="rounded=0;whiteSpace=wrap;html=1;fontSize=14;" parent="1" vertex="1">
          <mxGeometry x="1020" y="4790" width="120" height="60" as="geometry" />
        </mxCell>
        <mxCell id="ElFFhCFkvkXkjmspQPzn-182" style="edgeStyle=orthogonalEdgeStyle;rounded=0;orthogonalLoop=1;jettySize=auto;html=1;exitX=1;exitY=0.5;exitDx=0;exitDy=0;entryX=0;entryY=0.5;entryDx=0;entryDy=0;fontSize=14;" parent="1" source="ElFFhCFkvkXkjmspQPzn-178" target="ElFFhCFkvkXkjmspQPzn-179" edge="1">
          <mxGeometry relative="1" as="geometry" />
        </mxCell>
        <mxCell id="ElFFhCFkvkXkjmspQPzn-183" style="edgeStyle=orthogonalEdgeStyle;rounded=0;orthogonalLoop=1;jettySize=auto;html=1;exitX=1;exitY=0.5;exitDx=0;exitDy=0;entryX=0;entryY=0.5;entryDx=0;entryDy=0;fontSize=14;" parent="1" source="ElFFhCFkvkXkjmspQPzn-178" target="ElFFhCFkvkXkjmspQPzn-180" edge="1">
          <mxGeometry relative="1" as="geometry" />
        </mxCell>
        <mxCell id="ElFFhCFkvkXkjmspQPzn-184" style="edgeStyle=orthogonalEdgeStyle;rounded=0;orthogonalLoop=1;jettySize=auto;html=1;exitX=1;exitY=0.5;exitDx=0;exitDy=0;entryX=0;entryY=0.5;entryDx=0;entryDy=0;fontSize=14;" parent="1" source="ElFFhCFkvkXkjmspQPzn-178" target="ElFFhCFkvkXkjmspQPzn-181" edge="1">
          <mxGeometry relative="1" as="geometry" />
        </mxCell>
        <mxCell id="ElFFhCFkvkXkjmspQPzn-178" value="参加比赛" style="rounded=0;whiteSpace=wrap;html=1;fontSize=14;" parent="1" vertex="1">
          <mxGeometry x="490" y="4010" width="110" height="60" as="geometry" />
        </mxCell>
        <mxCell id="ElFFhCFkvkXkjmspQPzn-179" value="查看题目" style="rounded=0;whiteSpace=wrap;html=1;fontSize=14;" parent="1" vertex="1">
          <mxGeometry x="770" y="3860" width="120" height="60" as="geometry" />
        </mxCell>
        <mxCell id="ElFFhCFkvkXkjmspQPzn-235" style="edgeStyle=orthogonalEdgeStyle;rounded=0;orthogonalLoop=1;jettySize=auto;html=1;fontSize=14;" parent="1" source="ElFFhCFkvkXkjmspQPzn-180" target="ElFFhCFkvkXkjmspQPzn-233" edge="1">
          <mxGeometry relative="1" as="geometry" />
        </mxCell>
        <mxCell id="ElFFhCFkvkXkjmspQPzn-180" value="查看榜单" style="rounded=0;whiteSpace=wrap;html=1;fontSize=14;" parent="1" vertex="1">
          <mxGeometry x="770" y="4010" width="120" height="60" as="geometry" />
        </mxCell>
        <mxCell id="ElFFhCFkvkXkjmspQPzn-181" value="向比赛创建者提问" style="rounded=0;whiteSpace=wrap;html=1;fontSize=14;" parent="1" vertex="1">
          <mxGeometry x="770" y="4180" width="120" height="60" as="geometry" />
        </mxCell>
        <mxCell id="ElFFhCFkvkXkjmspQPzn-186" value="创建虚拟比赛" style="rounded=0;whiteSpace=wrap;html=1;fontSize=14;" parent="1" vertex="1">
          <mxGeometry x="495" y="4360" width="120" height="60" as="geometry" />
        </mxCell>
        <mxCell id="ElFFhCFkvkXkjmspQPzn-227" style="edgeStyle=orthogonalEdgeStyle;rounded=0;orthogonalLoop=1;jettySize=auto;html=1;entryX=0;entryY=0.5;entryDx=0;entryDy=0;fontSize=14;" parent="1" source="ElFFhCFkvkXkjmspQPzn-197" target="ElFFhCFkvkXkjmspQPzn-198" edge="1">
          <mxGeometry relative="1" as="geometry">
            <Array as="points">
              <mxPoint x="-180" y="6160" />
              <mxPoint x="-180" y="5680" />
            </Array>
          </mxGeometry>
        </mxCell>
        <mxCell id="ElFFhCFkvkXkjmspQPzn-228" style="edgeStyle=orthogonalEdgeStyle;rounded=0;orthogonalLoop=1;jettySize=auto;html=1;exitX=1;exitY=0.5;exitDx=0;exitDy=0;fontSize=14;entryX=0;entryY=0.5;entryDx=0;entryDy=0;" parent="1" source="ElFFhCFkvkXkjmspQPzn-197" target="ElFFhCFkvkXkjmspQPzn-203" edge="1">
          <mxGeometry relative="1" as="geometry">
            <mxPoint x="-110" y="6120" as="targetPoint" />
            <Array as="points">
              <mxPoint x="-180" y="6160" />
              <mxPoint x="-180" y="5990" />
            </Array>
          </mxGeometry>
        </mxCell>
        <mxCell id="ElFFhCFkvkXkjmspQPzn-229" style="edgeStyle=orthogonalEdgeStyle;rounded=0;orthogonalLoop=1;jettySize=auto;html=1;exitX=1;exitY=0.5;exitDx=0;exitDy=0;entryX=0;entryY=0.633;entryDx=0;entryDy=0;entryPerimeter=0;fontSize=14;" parent="1" source="ElFFhCFkvkXkjmspQPzn-197" target="ElFFhCFkvkXkjmspQPzn-210" edge="1">
          <mxGeometry relative="1" as="geometry">
            <Array as="points">
              <mxPoint x="-180" y="6160" />
              <mxPoint x="-180" y="6348" />
            </Array>
          </mxGeometry>
        </mxCell>
        <mxCell id="ElFFhCFkvkXkjmspQPzn-197" value="管理员" style="rounded=0;whiteSpace=wrap;html=1;fontSize=14;" parent="1" vertex="1">
          <mxGeometry x="-440" y="6130" width="120" height="60" as="geometry" />
        </mxCell>
        <mxCell id="ElFFhCFkvkXkjmspQPzn-202" style="edgeStyle=orthogonalEdgeStyle;rounded=0;orthogonalLoop=1;jettySize=auto;html=1;fontSize=14;entryX=0;entryY=0.5;entryDx=0;entryDy=0;" parent="1" source="ElFFhCFkvkXkjmspQPzn-198" target="ElFFhCFkvkXkjmspQPzn-199" edge="1">
          <mxGeometry relative="1" as="geometry">
            <mxPoint x="190" y="5670" as="targetPoint" />
          </mxGeometry>
        </mxCell>
        <mxCell id="ElFFhCFkvkXkjmspQPzn-207" style="edgeStyle=orthogonalEdgeStyle;rounded=0;orthogonalLoop=1;jettySize=auto;html=1;exitX=1;exitY=0.5;exitDx=0;exitDy=0;fontSize=14;" parent="1" source="ElFFhCFkvkXkjmspQPzn-198" target="ElFFhCFkvkXkjmspQPzn-206" edge="1">
          <mxGeometry relative="1" as="geometry" />
        </mxCell>
        <mxCell id="ElFFhCFkvkXkjmspQPzn-198" value="用户管理" style="rounded=0;whiteSpace=wrap;html=1;fontSize=14;" parent="1" vertex="1">
          <mxGeometry x="-50" y="5650" width="120" height="60" as="geometry" />
        </mxCell>
        <mxCell id="ElFFhCFkvkXkjmspQPzn-199" value="按专业班级查询" style="rounded=0;whiteSpace=wrap;html=1;fontSize=14;" parent="1" vertex="1">
          <mxGeometry x="260" y="5580" width="120" height="60" as="geometry" />
        </mxCell>
        <mxCell id="ElFFhCFkvkXkjmspQPzn-208" style="edgeStyle=orthogonalEdgeStyle;rounded=0;orthogonalLoop=1;jettySize=auto;html=1;exitX=1;exitY=0.5;exitDx=0;exitDy=0;entryX=0;entryY=0.5;entryDx=0;entryDy=0;fontSize=14;" parent="1" source="ElFFhCFkvkXkjmspQPzn-203" target="ElFFhCFkvkXkjmspQPzn-204" edge="1">
          <mxGeometry relative="1" as="geometry" />
        </mxCell>
        <mxCell id="ElFFhCFkvkXkjmspQPzn-209" style="edgeStyle=orthogonalEdgeStyle;rounded=0;orthogonalLoop=1;jettySize=auto;html=1;exitX=1;exitY=0.5;exitDx=0;exitDy=0;entryX=0;entryY=0.5;entryDx=0;entryDy=0;fontSize=14;" parent="1" source="ElFFhCFkvkXkjmspQPzn-203" target="ElFFhCFkvkXkjmspQPzn-205" edge="1">
          <mxGeometry relative="1" as="geometry" />
        </mxCell>
        <mxCell id="ElFFhCFkvkXkjmspQPzn-203" value="题目管理" style="rounded=0;whiteSpace=wrap;html=1;fontSize=14;" parent="1" vertex="1">
          <mxGeometry x="-60" y="5960" width="130" height="60" as="geometry" />
        </mxCell>
        <mxCell id="ElFFhCFkvkXkjmspQPzn-204" value="查看题目" style="rounded=0;whiteSpace=wrap;html=1;fontSize=14;" parent="1" vertex="1">
          <mxGeometry x="260" y="5870" width="120" height="60" as="geometry" />
        </mxCell>
        <mxCell id="ElFFhCFkvkXkjmspQPzn-205" value="删除题目" style="rounded=0;whiteSpace=wrap;html=1;fontSize=14;" parent="1" vertex="1">
          <mxGeometry x="260" y="6070" width="120" height="60" as="geometry" />
        </mxCell>
        <mxCell id="ElFFhCFkvkXkjmspQPzn-206" value="删除用户" style="rounded=0;whiteSpace=wrap;html=1;fontSize=14;" parent="1" vertex="1">
          <mxGeometry x="260" y="5690" width="120" height="60" as="geometry" />
        </mxCell>
        <mxCell id="ElFFhCFkvkXkjmspQPzn-215" style="edgeStyle=orthogonalEdgeStyle;rounded=0;orthogonalLoop=1;jettySize=auto;html=1;exitX=1;exitY=0.5;exitDx=0;exitDy=0;entryX=0;entryY=0.5;entryDx=0;entryDy=0;fontSize=14;" parent="1" source="ElFFhCFkvkXkjmspQPzn-210" target="ElFFhCFkvkXkjmspQPzn-211" edge="1">
          <mxGeometry relative="1" as="geometry" />
        </mxCell>
        <mxCell id="ElFFhCFkvkXkjmspQPzn-216" style="edgeStyle=orthogonalEdgeStyle;rounded=0;orthogonalLoop=1;jettySize=auto;html=1;exitX=1;exitY=0.5;exitDx=0;exitDy=0;entryX=0;entryY=0.5;entryDx=0;entryDy=0;fontSize=14;" parent="1" source="ElFFhCFkvkXkjmspQPzn-210" target="ElFFhCFkvkXkjmspQPzn-212" edge="1">
          <mxGeometry relative="1" as="geometry" />
        </mxCell>
        <mxCell id="ElFFhCFkvkXkjmspQPzn-217" style="edgeStyle=orthogonalEdgeStyle;rounded=0;orthogonalLoop=1;jettySize=auto;html=1;exitX=1;exitY=0.5;exitDx=0;exitDy=0;entryX=0;entryY=0.5;entryDx=0;entryDy=0;fontSize=14;" parent="1" source="ElFFhCFkvkXkjmspQPzn-210" target="ElFFhCFkvkXkjmspQPzn-213" edge="1">
          <mxGeometry relative="1" as="geometry" />
        </mxCell>
        <mxCell id="ElFFhCFkvkXkjmspQPzn-210" value="比赛管理" style="rounded=0;whiteSpace=wrap;html=1;fontSize=14;" parent="1" vertex="1">
          <mxGeometry x="-55" y="6310" width="120" height="60" as="geometry" />
        </mxCell>
        <mxCell id="ElFFhCFkvkXkjmspQPzn-211" value="修改比赛信息" style="rounded=0;whiteSpace=wrap;html=1;fontSize=14;" parent="1" vertex="1">
          <mxGeometry x="260" y="6180" width="120" height="60" as="geometry" />
        </mxCell>
        <mxCell id="ElFFhCFkvkXkjmspQPzn-212" value="顶置比赛" style="rounded=0;whiteSpace=wrap;html=1;fontSize=14;" parent="1" vertex="1">
          <mxGeometry x="260" y="6330" width="120" height="60" as="geometry" />
        </mxCell>
        <mxCell id="ElFFhCFkvkXkjmspQPzn-223" style="edgeStyle=orthogonalEdgeStyle;rounded=0;orthogonalLoop=1;jettySize=auto;html=1;exitX=1;exitY=0.5;exitDx=0;exitDy=0;entryX=0;entryY=0.5;entryDx=0;entryDy=0;fontSize=14;" parent="1" source="ElFFhCFkvkXkjmspQPzn-213" target="ElFFhCFkvkXkjmspQPzn-220" edge="1">
          <mxGeometry relative="1" as="geometry" />
        </mxCell>
        <mxCell id="ElFFhCFkvkXkjmspQPzn-224" style="edgeStyle=orthogonalEdgeStyle;rounded=0;orthogonalLoop=1;jettySize=auto;html=1;exitX=1;exitY=0.5;exitDx=0;exitDy=0;entryX=0;entryY=0.5;entryDx=0;entryDy=0;fontSize=14;" parent="1" source="ElFFhCFkvkXkjmspQPzn-213" target="ElFFhCFkvkXkjmspQPzn-221" edge="1">
          <mxGeometry relative="1" as="geometry" />
        </mxCell>
        <mxCell id="ElFFhCFkvkXkjmspQPzn-213" value="查看比赛情况" style="rounded=0;whiteSpace=wrap;html=1;fontSize=14;" parent="1" vertex="1">
          <mxGeometry x="260" y="6480" width="130" height="60" as="geometry" />
        </mxCell>
        <mxCell id="ElFFhCFkvkXkjmspQPzn-220" value="查看导出报名信息" style="rounded=0;whiteSpace=wrap;html=1;fontSize=14;" parent="1" vertex="1">
          <mxGeometry x="530" y="6400" width="120" height="60" as="geometry" />
        </mxCell>
        <mxCell id="ElFFhCFkvkXkjmspQPzn-221" value="查看导入比赛结果" style="rounded=0;whiteSpace=wrap;html=1;fontSize=14;" parent="1" vertex="1">
          <mxGeometry x="530" y="6550" width="120" height="60" as="geometry" />
        </mxCell>
        <mxCell id="ElFFhCFkvkXkjmspQPzn-232" value="查看报名信息和导入" style="rounded=0;whiteSpace=wrap;html=1;fontSize=14;" parent="1" vertex="1">
          <mxGeometry x="525" y="4270" width="120" height="60" as="geometry" />
        </mxCell>
        <mxCell id="ElFFhCFkvkXkjmspQPzn-233" value="导出榜单" style="rounded=0;whiteSpace=wrap;html=1;fontSize=14;" parent="1" vertex="1">
          <mxGeometry x="1067" y="4010" width="120" height="60" as="geometry" />
        </mxCell>
        <mxCell id="ElFFhCFkvkXkjmspQPzn-237" value="创建比赛的人" style="text;html=1;align=center;verticalAlign=middle;resizable=0;points=[];autosize=1;strokeColor=none;fillColor=none;fontSize=14;" parent="1" vertex="1">
          <mxGeometry x="430" y="4250" width="100" height="20" as="geometry" />
        </mxCell>
      </root>
    </mxGraphModel>
  </diagram>
</mxfile>
